<svg width="170" height="40" viewBox="0 0 170 40" fill="none" xmlns="http://www.w3.org/2000/svg">
<g clip-path="url(#clip0)">
<rect width="1440" height="980" transform="translate(-27 -20)" fill="white"/>
<rect x="-27" y="-20" width="280" height="920" fill="white"/>
<path d="M51.3117 20.3086H58.3436V22.9714H48V6.88393H51.3117V20.3086Z" fill="#3C425F"/>
<path d="M65.7671 23.1924C64.0156 23.1924 62.5879 22.6547 61.484 21.5792C60.3874 20.5038 59.8391 19.0711 59.8391 17.2811V16.9718C59.8391 15.7711 60.071 14.6993 60.5346 13.7565C60.9982 12.8063 61.6532 12.077 62.4995 11.5688C63.3532 11.0531 64.3247 10.7953 65.4138 10.7953C67.0476 10.7953 68.3318 11.3109 69.2665 12.3422C70.2085 13.3734 70.6795 14.8356 70.6795 16.7287V18.0325H63.0736C63.1766 18.8133 63.4857 19.4394 64.0009 19.9108C64.5234 20.3823 65.182 20.618 65.9768 20.618C67.2058 20.618 68.1662 20.1723 68.858 19.281L70.4256 21.0378C69.9472 21.7155 69.2996 22.2459 68.4827 22.6289C67.6658 23.0046 66.7606 23.1924 65.7671 23.1924ZM65.4028 13.3808C64.7699 13.3808 64.2547 13.5944 63.8573 14.0217C63.4673 14.4489 63.2171 15.0603 63.1067 15.8558H67.5444V15.6017C67.5297 14.8945 67.3383 14.3494 66.9703 13.9664C66.6024 13.576 66.0799 13.3808 65.4028 13.3808Z" fill="#3C425F"/>
<path d="M76.5465 8.07723V11.0163H78.5887V13.3587H76.5465V19.3252C76.5465 19.7672 76.6311 20.0839 76.8004 20.2754C76.9696 20.467 77.2935 20.5627 77.7718 20.5627C78.1251 20.5627 78.4378 20.5369 78.7101 20.4854V22.9051C78.0846 23.0967 77.4406 23.1924 76.7783 23.1924C74.5411 23.1924 73.4004 22.0617 73.3562 19.8003V13.3587H71.612V11.0163H73.3562V8.07723H76.5465Z" fill="#3C425F"/>
<path d="M81.7732 11.8229L80.2719 10.95C80.9048 9.95558 81.2323 8.92801 81.2544 7.8673V6H83.7934V7.71261C83.7934 8.37556 83.6094 9.09375 83.2414 9.86719C82.8735 10.6406 82.3841 11.2925 81.7732 11.8229Z" fill="#3C425F"/>
<path d="M90.1792 19.6677C90.1792 19.2773 89.9842 18.9717 89.5942 18.7507C89.2115 18.5223 88.5933 18.3198 87.7396 18.143C84.8989 17.5463 83.4785 16.3383 83.4785 14.5189C83.4785 13.4581 83.9164 12.5742 84.7922 11.8671C85.6753 11.1526 86.8271 10.7953 88.2474 10.7953C89.7634 10.7953 90.9741 11.1526 91.8792 11.8671C92.7918 12.5816 93.2481 13.5097 93.2481 14.6515H90.0578C90.0578 14.1948 89.9106 13.8191 89.6162 13.5244C89.3219 13.2224 88.8619 13.0714 88.2364 13.0714C87.6991 13.0714 87.2833 13.193 86.989 13.436C86.6946 13.6791 86.5474 13.9885 86.5474 14.3642C86.5474 14.7177 86.713 15.005 87.0442 15.226C87.3827 15.4396 87.9494 15.6275 88.7442 15.7895C89.539 15.9442 90.2087 16.121 90.7533 16.3199C92.4386 16.9386 93.2812 18.0104 93.2812 19.5352C93.2812 20.6253 92.8139 21.5093 91.8792 22.1869C90.9446 22.8573 89.7377 23.1924 88.2584 23.1924C87.2576 23.1924 86.3671 23.0156 85.587 22.6621C84.8143 22.3011 84.2071 21.8113 83.7656 21.1925C83.324 20.5664 83.1032 19.8924 83.1032 19.1705H86.1279C86.1574 19.7377 86.3671 20.1723 86.7571 20.4743C87.1472 20.7763 87.6697 20.9273 88.3247 20.9273C88.9355 20.9273 89.3955 20.8132 89.7046 20.5848C90.021 20.3491 90.1792 20.0434 90.1792 19.6677Z" fill="#3C425F"/>
<path d="M109.972 18.7507C109.972 18.1246 109.751 17.6458 109.309 17.3143C108.868 16.9754 108.073 16.6219 106.925 16.2536C105.777 15.8779 104.868 15.5096 104.198 15.1487C102.373 14.1616 101.461 12.832 101.461 11.1599C101.461 10.2907 101.704 9.5173 102.189 8.83962C102.682 8.15458 103.385 7.62054 104.298 7.2375C105.218 6.85446 106.248 6.66295 107.389 6.66295C108.537 6.66295 109.56 6.87288 110.457 7.29275C111.355 7.70525 112.051 8.29085 112.544 9.04955C113.044 9.80826 113.295 10.6701 113.295 11.635H109.983C109.983 10.8984 109.751 10.3276 109.287 9.92243C108.824 9.50993 108.172 9.30368 107.333 9.30368C106.524 9.30368 105.895 9.47679 105.446 9.82299C104.997 10.1618 104.772 10.6112 104.772 11.171C104.772 11.694 105.034 12.1323 105.556 12.4858C106.086 12.8394 106.862 13.1709 107.885 13.4802C109.769 14.0474 111.142 14.7509 112.003 15.5906C112.864 16.4304 113.295 17.4763 113.295 18.7286C113.295 20.1208 112.768 21.2146 111.716 22.0102C110.664 22.7983 109.247 23.1924 107.466 23.1924C106.23 23.1924 105.104 22.9677 104.088 22.5184C103.072 22.0617 102.296 21.4393 101.759 20.6511C101.229 19.8629 100.964 18.9496 100.964 17.9109H104.287C104.287 19.6862 105.346 20.5738 107.466 20.5738C108.253 20.5738 108.868 20.4154 109.309 20.0987C109.751 19.7746 109.972 19.3252 109.972 18.7507Z" fill="#3C425F"/>
<path d="M126.315 17.1044C126.315 18.9459 125.895 20.4228 125.056 21.535C124.225 22.64 123.099 23.1924 121.678 23.1924C120.472 23.1924 119.496 22.7725 118.753 21.9328V27.5679H115.563V11.0163H118.521L118.632 12.1875C119.404 11.2594 120.413 10.7953 121.656 10.7953C123.128 10.7953 124.273 11.3404 125.09 12.4306C125.906 13.5208 126.315 15.0234 126.315 16.9386V17.1044ZM123.125 16.8723C123.125 15.76 122.926 14.9019 122.528 14.2979C122.138 13.6939 121.568 13.3919 120.817 13.3919C119.817 13.3919 119.128 13.7749 118.753 14.541V19.4357C119.143 20.2239 119.839 20.618 120.839 20.618C122.363 20.618 123.125 19.3694 123.125 16.8723Z" fill="#3C425F"/>
<path d="M134.025 23.1924C132.274 23.1924 130.846 22.6547 129.742 21.5792C128.646 20.5038 128.097 19.0711 128.097 17.2811V16.9718C128.097 15.7711 128.329 14.6993 128.793 13.7565C129.257 12.8063 129.911 12.077 130.758 11.5688C131.612 11.0531 132.583 10.7953 133.672 10.7953C135.306 10.7953 136.59 11.3109 137.525 12.3422C138.467 13.3734 138.938 14.8356 138.938 16.7287V18.0325H131.332C131.435 18.8133 131.744 19.4394 132.259 19.9108C132.782 20.3823 133.44 20.618 134.235 20.618C135.464 20.618 136.425 20.1723 137.116 19.281L138.684 21.0378C138.205 21.7155 137.558 22.2459 136.741 22.6289C135.924 23.0046 135.019 23.1924 134.025 23.1924ZM133.661 13.3808C133.028 13.3808 132.513 13.5944 132.116 14.0217C131.726 14.4489 131.475 15.0603 131.365 15.8558H135.803V15.6017C135.788 14.8945 135.597 14.3494 135.229 13.9664C134.861 13.576 134.338 13.3808 133.661 13.3808Z" fill="#3C425F"/>
<path d="M147.907 22.9714C147.76 22.6842 147.653 22.3269 147.587 21.8997C146.814 22.7615 145.809 23.1924 144.573 23.1924C143.403 23.1924 142.431 22.8536 141.659 22.1759C140.893 21.4982 140.511 20.6438 140.511 19.6125C140.511 18.3455 140.978 17.3732 141.913 16.6955C142.855 16.0179 144.212 15.6753 145.986 15.668H147.454V14.9829C147.454 14.4305 147.311 13.9885 147.024 13.657C146.744 13.3256 146.299 13.1598 145.688 13.1598C145.151 13.1598 144.727 13.2887 144.418 13.5465C144.117 13.8044 143.966 14.1579 143.966 14.6073H140.776C140.776 13.9148 140.989 13.274 141.416 12.6847C141.843 12.0954 142.446 11.635 143.226 11.3036C144.006 10.9647 144.882 10.7953 145.853 10.7953C147.325 10.7953 148.492 11.1673 149.353 11.9113C150.221 12.6479 150.655 13.6865 150.655 15.0271V20.2092C150.663 21.3435 150.821 22.2017 151.13 22.7836V22.9714H147.907ZM145.268 20.7506C145.739 20.7506 146.174 20.6474 146.571 20.4412C146.968 20.2276 147.263 19.944 147.454 19.5904V17.5353H146.262C144.665 17.5353 143.815 18.0877 143.712 19.1926L143.701 19.3805C143.701 19.7782 143.841 20.106 144.12 20.3638C144.4 20.6217 144.783 20.7506 145.268 20.7506Z" fill="#3C425F"/>
<path d="M157.671 18.1761L156.522 19.3252V22.9714H153.332V6H156.522V15.4028L157.141 14.6073L160.198 11.0163H164.029L159.713 15.9994L164.404 22.9714H160.739L157.671 18.1761Z" fill="#3C425F"/>
<path d="M52.7026 30.1105V36.0881H52.0403V33.6794H50.1857L48.7286 36.0881H48L49.5013 33.5965C49.0929 33.4897 48.7746 33.2834 48.5464 32.9777C48.322 32.672 48.2097 32.3111 48.2097 31.8949C48.2097 31.3535 48.4029 30.9208 48.7893 30.5967C49.1793 30.2725 49.7055 30.1105 50.3679 30.1105H52.7026ZM48.8721 31.906C48.8721 32.2559 48.9825 32.5431 49.2033 32.7678C49.4277 32.9925 49.7386 33.1085 50.1361 33.1158H52.0403V30.674H50.3513C49.8914 30.674 49.5289 30.7845 49.264 31.0055C49.0027 31.2265 48.8721 31.5266 48.8721 31.906Z" fill="#3C425F"/>
<path d="M59.963 31.6905C59.963 31.3296 59.8287 31.0515 59.5601 30.8563C59.2915 30.6611 58.9216 30.5635 58.4506 30.5635C58.0238 30.5635 57.6577 30.674 57.3523 30.895C57.0505 31.1123 56.8997 31.3885 56.8997 31.7237H56.2428C56.2428 31.2265 56.4544 30.8158 56.8776 30.4917C57.3044 30.1676 57.8288 30.0055 58.4506 30.0055C59.1351 30.0055 59.6686 30.1528 60.0513 30.4475C60.434 30.7421 60.6253 31.1602 60.6253 31.7016C60.6253 31.9888 60.537 32.2485 60.3604 32.4805C60.1838 32.7126 59.9262 32.893 59.5877 33.0219C60.353 33.2319 60.7357 33.707 60.7357 34.4473C60.7357 34.985 60.5278 35.4104 60.112 35.7234C59.6962 36.0365 59.1443 36.193 58.4562 36.193C57.7901 36.193 57.2382 36.0254 56.8003 35.6903C56.3624 35.3551 56.1435 34.9169 56.1435 34.3754H56.8058C56.8058 34.7364 56.9641 35.0384 57.2805 35.2815C57.6006 35.5209 57.9925 35.6406 58.4562 35.6406C58.9603 35.6406 59.354 35.5356 59.6373 35.3257C59.9244 35.1121 60.0679 34.8229 60.0679 34.4583C60.0679 34.0569 59.9372 33.7677 59.676 33.591C59.4147 33.4142 59.0155 33.3258 58.4782 33.3258H57.5675V32.7512H58.5886C59.5049 32.7291 59.963 32.3756 59.963 31.6905Z" fill="#3C425F"/>
<path d="M64.8996 32.2816H66.6217C67.0633 32.2816 67.4497 32.3627 67.7808 32.5247C68.1157 32.6831 68.3677 32.9041 68.537 33.1877C68.71 33.4713 68.7964 33.8009 68.7964 34.1766C68.7964 34.7548 68.5977 35.2189 68.2003 35.5688C67.8066 35.915 67.273 36.0881 66.5997 36.0881H64.2428V30.1105H64.8996V32.2816ZM64.8996 32.8451V35.5301H66.6107C67.0854 35.5301 67.457 35.4104 67.7256 35.171C67.9979 34.9316 68.1341 34.6038 68.1341 34.1876C68.1341 33.7898 68.0016 33.4694 67.7367 33.2263C67.4754 32.9796 67.1167 32.8525 66.6604 32.8451H64.8996ZM70.8221 36.0881H70.1597V30.1105H70.8221V36.0881Z" fill="#3C425F"/>
<path d="M76.261 33.3479H75.3448V36.0881H74.6769V30.1105H75.3448V32.7623H76.25L78.4412 30.1105H79.2747L76.824 33.0109L79.5451 36.0881H78.673L76.261 33.3479Z" fill="#3C425F"/>
<path d="M81.9925 33.0109C81.9925 32.4363 82.1029 31.9189 82.3236 31.4585C82.5481 30.9981 82.8627 30.6408 83.2675 30.3867C83.6759 30.1289 84.1377 30 84.6529 30C85.4477 30 86.0916 30.2799 86.5847 30.8397C87.0778 31.3959 87.3243 32.1343 87.3243 33.0551V33.1932C87.3243 33.7714 87.2121 34.2926 86.9876 34.7566C86.7669 35.217 86.4541 35.5724 86.0493 35.8229C85.6446 36.0733 85.1828 36.1985 84.6639 36.1985C83.8728 36.1985 83.2288 35.9205 82.7321 35.3643C82.239 34.8045 81.9925 34.0642 81.9925 33.1435V33.0109ZM82.6548 33.1932C82.6548 33.9077 82.8388 34.4951 83.2068 34.9555C83.5784 35.4122 84.0641 35.6406 84.6639 35.6406C85.26 35.6406 85.7421 35.4122 86.11 34.9555C86.4817 34.4951 86.6675 33.8893 86.6675 33.1379V33.0109C86.6675 32.5542 86.5829 32.1362 86.4136 31.7568C86.2443 31.3775 86.007 31.0847 85.7016 30.8784C85.3962 30.6685 85.0466 30.5635 84.6529 30.5635C84.0641 30.5635 83.5839 30.7955 83.2123 31.2596C82.8406 31.72 82.6548 32.324 82.6548 33.0717V33.1932Z" fill="#3C425F"/>
<path d="M90.7431 36.0881V30.1105H92.9344C93.6924 30.1105 94.2738 30.2468 94.6785 30.5193C95.0833 30.7882 95.2857 31.1841 95.2857 31.7071C95.2857 32.0054 95.1955 32.2724 95.0152 32.5081C94.8349 32.7402 94.5718 32.9096 94.2259 33.0164C94.616 33.0901 94.9287 33.2576 95.1642 33.5191C95.4034 33.7806 95.523 34.0845 95.523 34.4307C95.523 34.9574 95.328 35.3662 94.9379 35.6571C94.5516 35.9444 94.0033 36.0881 93.2931 36.0881H90.7431ZM91.3999 33.3368V35.5356H93.3152C93.812 35.5356 94.1946 35.4398 94.4633 35.2483C94.7319 35.0568 94.8662 34.7806 94.8662 34.4196C94.8662 34.0882 94.7319 33.8248 94.4633 33.6296C94.1946 33.4344 93.812 33.3368 93.3152 33.3368H91.3999ZM91.3999 32.7844H93.0723C94.11 32.7696 94.6288 32.4161 94.6288 31.7237C94.6288 31.359 94.4853 31.0939 94.1983 30.9281C93.915 30.7587 93.4937 30.674 92.9344 30.674H91.3999V32.7844Z" fill="#3C425F"/>
<path d="M102.745 36.0881C102.679 35.9002 102.636 35.6222 102.618 35.2539C102.386 35.5559 102.09 35.7897 101.729 35.9555C101.372 36.1175 100.993 36.1985 100.592 36.1985C100.018 36.1985 99.5526 36.0383 99.1957 35.7179C98.8424 35.3975 98.6658 34.9924 98.6658 34.5025C98.6658 33.9206 98.9068 33.4602 99.3889 33.1214C99.8746 32.7825 100.55 32.6131 101.415 32.6131H102.612V31.9336C102.612 31.5064 102.48 31.1712 102.215 30.9281C101.954 30.6814 101.571 30.558 101.067 30.558C100.607 30.558 100.226 30.6758 99.9243 30.9116C99.6225 31.1473 99.4717 31.4309 99.4717 31.7623L98.8093 31.7568C98.8093 31.2817 99.0301 30.871 99.4717 30.5248C99.9132 30.1749 100.456 30 101.1 30C101.766 30 102.29 30.1676 102.673 30.5027C103.059 30.8342 103.258 31.2983 103.269 31.8949V34.7235C103.269 35.3017 103.33 35.7345 103.451 36.0218V36.0881H102.745ZM100.669 35.6129C101.111 35.6129 101.505 35.5061 101.851 35.2925C102.2 35.0789 102.454 34.7935 102.612 34.4362V33.1214H101.431C100.772 33.1287 100.257 33.2503 99.8856 33.486C99.514 33.718 99.3282 34.0384 99.3282 34.4473C99.3282 34.7824 99.4514 35.0605 99.698 35.2815C99.9482 35.5025 100.272 35.6129 100.669 35.6129Z" fill="#3C425F"/>
<path d="M111.368 30.1105V36.0881H110.706V33.6794H108.852L107.394 36.0881H106.666L108.167 33.5965C107.759 33.4897 107.44 33.2834 107.212 32.9777C106.988 32.672 106.876 32.3111 106.876 31.8949C106.876 31.3535 107.069 30.9208 107.455 30.5967C107.845 30.2725 108.371 30.1105 109.034 30.1105H111.368ZM107.538 31.906C107.538 32.2559 107.648 32.5431 107.869 32.7678C108.094 32.9925 108.404 33.1085 108.802 33.1158H110.706V30.674H109.017C108.557 30.674 108.195 30.7845 107.93 31.0055C107.669 31.2265 107.538 31.5266 107.538 31.906Z" fill="#3C425F"/>
<path d="M123.662 30.1105V35.5301H126.317V30.1105H126.98V35.5301H129.612V30.1105H130.275V36.0881H123V30.1105H123.662Z" fill="#3C425F"/>
<path d="M135.532 33.3479H134.615V36.0881H133.947V30.1105H134.615V32.7623H135.52L137.712 30.1105H138.545L136.094 33.0109L138.816 36.0881H137.944L135.532 33.3479Z" fill="#3C425F"/>
<path d="M141.263 33.0109C141.263 32.4363 141.373 31.9189 141.594 31.4585C141.819 30.9981 142.133 30.6408 142.538 30.3867C142.946 30.1289 143.408 30 143.923 30C144.718 30 145.362 30.2799 145.855 30.8397C146.348 31.3959 146.595 32.1343 146.595 33.0551V33.1932C146.595 33.7714 146.483 34.2926 146.258 34.7566C146.037 35.217 145.725 35.5724 145.32 35.8229C144.915 36.0733 144.453 36.1985 143.934 36.1985C143.143 36.1985 142.499 35.9205 142.003 35.3643C141.51 34.8045 141.263 34.0642 141.263 33.1435V33.0109ZM141.925 33.1932C141.925 33.9077 142.109 34.4951 142.477 34.9555C142.849 35.4122 143.335 35.6406 143.934 35.6406C144.531 35.6406 145.013 35.4122 145.381 34.9555C145.752 34.4951 145.938 33.8893 145.938 33.1379V33.0109C145.938 32.5542 145.853 32.1362 145.684 31.7568C145.515 31.3775 145.277 31.0847 144.972 30.8784C144.667 30.6685 144.317 30.5635 143.923 30.5635C143.335 30.5635 142.854 30.7955 142.483 31.2596C142.111 31.72 141.925 32.324 141.925 33.0717V33.1932Z" fill="#3C425F"/>
<path d="M154.446 30.1105V36.0881H153.783V30.6795H151.338L151.233 32.917C151.189 33.7456 151.106 34.3791 150.985 34.8174C150.864 35.252 150.683 35.5724 150.444 35.7787C150.205 35.9849 149.887 36.0881 149.489 36.0881H149.235V35.5025L149.44 35.4914C149.819 35.484 150.091 35.2999 150.256 34.939C150.422 34.578 150.531 33.9335 150.582 33.0054L150.704 30.1105H154.446Z" fill="#3C425F"/>
<path d="M161.971 36.0881C161.905 35.9002 161.863 35.6222 161.844 35.2539C161.612 35.5559 161.316 35.7897 160.955 35.9555C160.599 36.1175 160.22 36.1985 159.818 36.1985C159.244 36.1985 158.779 36.0383 158.422 35.7179C158.069 35.3975 157.892 34.9924 157.892 34.5025C157.892 33.9206 158.133 33.4602 158.615 33.1214C159.101 32.7825 159.776 32.6131 160.641 32.6131H161.839V31.9336C161.839 31.5064 161.706 31.1712 161.441 30.9281C161.18 30.6814 160.797 30.558 160.293 30.558C159.833 30.558 159.452 30.6758 159.151 30.9116C158.849 31.1473 158.698 31.4309 158.698 31.7623L158.036 31.7568C158.036 31.2817 158.256 30.871 158.698 30.5248C159.14 30.1749 159.682 30 160.326 30C160.992 30 161.517 30.1676 161.899 30.5027C162.286 30.8342 162.484 31.2983 162.495 31.8949V34.7235C162.495 35.3017 162.556 35.7345 162.678 36.0218V36.0881H161.971ZM159.896 35.6129C160.337 35.6129 160.731 35.5061 161.077 35.2925C161.426 35.0789 161.68 34.7935 161.839 34.4362V33.1214H160.657C159.999 33.1287 159.484 33.2503 159.112 33.486C158.74 33.718 158.554 34.0384 158.554 34.4473C158.554 34.7824 158.678 35.0605 158.924 35.2815C159.175 35.5025 159.498 35.6129 159.896 35.6129Z" fill="#3C425F"/>
<path fill-rule="evenodd" clip-rule="evenodd" d="M3 12C3 7.58172 6.58172 4 11 4H28C32.4183 4 36 7.58172 36 12V27C36 31.4183 32.4183 35 28 35H18L8 40V34.4185C5.06817 33.2317 3 30.3574 3 27V12ZM27.9999 16C27.9999 13.7909 26.2091 12 23.9999 12H14.9999C12.7908 12 10.9999 13.7909 10.9999 16V22C10.9999 24.2091 12.7908 26 14.9999 26H16.9999L24.9999 30V25.874C26.7252 25.4299 27.9999 23.8638 27.9999 22V16Z" fill="url(#paint0_linear)"/>
</g>
<defs>
<linearGradient id="paint0_linear" x1="36" y1="4" x2="3" y2="40" gradientUnits="userSpaceOnUse">
<stop stop-color="#6F85EF"/>
<stop offset="1" stop-color="#0DE1D4"/>
</linearGradient>
<clipPath id="clip0">
<rect width="1440" height="980" fill="white" transform="translate(-27 -20)"/>
</clipPath>
</defs>
</svg>
